<svg width="36" height="34" viewBox="0 0 36 34" fill="none" xmlns="http://www.w3.org/2000/svg">
<path d="M35.5493 11.2653L34.0867 19.7602C33.9064 20.6986 33.1679 21.2691 32.3163 21.2799H10.9933L10.57 23.6958H30.8922C31.9623 23.7782 32.6881 24.5456 32.7012 25.5272C32.6234 26.6084 31.8654 27.3453 30.8922 27.3587H8.41457C7.19892 27.248 6.47404 26.267 6.60558 25.1765L7.5678 19.877L6.10522 4.99144L1.94842 3.66664C0.932604 3.2583 0.518008 2.32794 0.755256 1.36757C1.14974 0.366675 2.09498 -0.0906194 3.0261 0.159582L8.33758 1.87415C9.05314 2.14571 9.46477 2.73872 9.56922 3.43285L9.87713 6.39437L33.9712 9.12207C35.0783 9.36485 35.6793 10.2526 35.5493 11.2653V11.2653ZM13.9221 31.2042C13.9221 32.7484 12.6858 34.0001 11.1606 34.0001C9.63537 34.0001 8.399 32.7484 8.399 31.2042C8.399 29.6601 9.6354 28.4083 11.1606 28.4083C12.6857 28.4083 13.9221 29.6601 13.9221 31.2042ZM30.4087 31.2042C30.4087 32.7484 29.1723 34.0001 27.6471 34.0001C26.1219 34.0001 24.8855 32.7484 24.8855 31.2042C24.8855 29.6601 26.1219 28.4083 27.6471 28.4083C29.1723 28.4083 30.4087 29.6601 30.4087 31.2042Z" fill="white"/>
</svg>
